<?xml version="1.0" encoding="UTF-8"?>
<svg xmlns="http://www.w3.org/2000/svg" xmlns:xlink="http://www.w3.org/1999/xlink" width="12pt" height="12pt" viewBox="0 0 12 12" version="1.1">
<g id="surface1">
<path style=" stroke:none;fill-rule:nonzero;fill:rgb(0%,0%,0%);fill-opacity:1;" d="M 11.46875 0.679688 L 11.320312 0.53125 C 11.179688 0.390625 10.992188 0.308594 10.792969 0.308594 C 10.59375 0.308594 10.402344 0.390625 10.261719 0.53125 L 6 4.792969 L 1.738281 0.53125 C 1.597656 0.390625 1.40625 0.308594 1.207031 0.308594 C 1.007812 0.308594 0.820312 0.390625 0.679688 0.53125 L 0.53125 0.679688 C 0.390625 0.820312 0.308594 1.007812 0.308594 1.207031 C 0.308594 1.40625 0.390625 1.597656 0.53125 1.738281 L 4.792969 6 L 0.53125 10.261719 C 0.390625 10.402344 0.308594 10.59375 0.308594 10.792969 C 0.308594 10.992188 0.390625 11.179688 0.53125 11.320312 L 0.679688 11.46875 C 0.820312 11.609375 1.007812 11.691406 1.207031 11.691406 C 1.40625 11.691406 1.597656 11.609375 1.738281 11.46875 L 6 7.207031 L 10.261719 11.46875 C 10.402344 11.609375 10.59375 11.6875 10.792969 11.6875 C 10.992188 11.6875 11.179688 11.609375 11.320312 11.46875 L 11.46875 11.320312 C 11.609375 11.179688 11.691406 10.988281 11.691406 10.789062 C 11.691406 10.589844 11.609375 10.402344 11.46875 10.261719 L 7.207031 6 L 11.46875 1.738281 C 11.609375 1.597656 11.6875 1.40625 11.6875 1.207031 C 11.6875 1.007812 11.609375 0.820312 11.46875 0.679688 Z M 11.46875 0.679688 "/>
</g>
</svg>
