<svg width="32" height="32" viewBox="0 0 32 32" fill="none" xmlns="http://www.w3.org/2000/svg">
<circle cx="16" cy="16" r="16" fill="#6F787E"/>
<mask id="mask0_966_5063" style="mask-type:alpha" maskUnits="userSpaceOnUse" x="6" y="6" width="20" height="20">
<rect x="6" y="6" width="20" height="20" fill="#D9D9D9"/>
</mask>
<g mask="url(#mask0_966_5063)">
<path d="M9.33317 22.6663C8.87484 22.6663 8.48262 22.5033 8.1565 22.1772C7.82984 21.8505 7.6665 21.458 7.6665 20.9997V10.9997C7.6665 10.5413 7.82984 10.1491 8.1565 9.82301C8.48262 9.49634 8.87484 9.33301 9.33317 9.33301H19.3332C19.7915 9.33301 20.184 9.49634 20.5107 9.82301C20.8368 10.1491 20.9998 10.5413 20.9998 10.9997V14.7497L24.3332 11.4163V20.583L20.9998 17.2497V20.9997C20.9998 21.458 20.8368 21.8505 20.5107 22.1772C20.184 22.5033 19.7915 22.6663 19.3332 22.6663H9.33317ZM9.33317 20.9997H19.3332V10.9997H9.33317V20.9997Z" fill="white"/>
</g>
</svg>
