<svg width="32" height="32" viewBox="0 0 32 32" fill="none" xmlns="http://www.w3.org/2000/svg">
<circle cx="16" cy="16" r="16" fill="#0A84FF"/>
<path d="M11.5556 20.3791H17.0069C18.3449 20.3791 19.1249 19.6162 19.1249 18.298V13.7009C19.1249 12.3879 18.3449 11.625 17.0069 11.625H11.5556C10.2649 11.625 9.4375 12.3879 9.4375 13.7028V18.3301C9.4375 19.6463 10.2167 20.3791 11.5556 20.3791ZM11.7268 19.4445C10.9024 19.4445 10.4349 19.0066 10.4349 18.152V13.8521C10.4349 12.9818 10.9024 12.5544 11.7268 12.5544H16.8356C17.6548 12.5544 18.1266 12.9922 18.1266 13.8521V18.152C18.1266 19.0066 17.6501 19.4445 16.8328 19.4445H11.7268ZM18.9516 14.5094V15.6219L21.411 13.6079C21.4553 13.5731 21.4858 13.5488 21.5311 13.5488C21.5892 13.5488 21.6164 13.5965 21.6164 13.6661V18.3626C21.6164 18.4312 21.5892 18.4755 21.5311 18.4755C21.4858 18.4755 21.4553 18.4503 21.411 18.4198L18.9516 16.4067V17.514L21.017 19.2682C21.2605 19.4713 21.5119 19.6107 21.7578 19.6107C22.2378 19.6107 22.5625 19.2626 22.5625 18.7489V13.2798C22.5625 12.7651 22.2378 12.417 21.7578 12.417C21.511 12.417 21.2605 12.5564 21.017 12.7595L18.9516 14.5094Z" fill="black"/>
</svg>
